HIERARCHY
ROOT Hips
{
	OFFSET 0.000000 83.214638 0.000000
	CHANNELS 6 Xposition Yposition Zposition Xrotation Yrotation Zrotation
	JOINT Pelvis
	{
		OFFSET 0.000000 0.000000 0.000000
		CHANNELS 3 Xrotation Yrotation Zrotation
		JOINT LeftUpLeg
		{
			OFFSET 8.479700 -4.795502 -0.379100
			CHANNELS 3 Xrotation Yrotation Zrotation
			JOINT LeftLeg
			{
				OFFSET 0.024144 -32.555107 0.112900
				CHANNELS 3 Xrotation Yrotation Zrotation
				JOINT LeftFoot
				{
					OFFSET -0.024144 -32.638630 -3.012600
					CHANNELS 3 Xrotation Yrotation Zrotation
					JOINT LeftToeBase
					{
						OFFSET 0.970200 -13.225400 11.864200
						CHANNELS 3 Xrotation Yrotation Zrotation
						End Site
						{
							OFFSET 0.000000 12.319262 0.000000
						}
					}
					JOINT LFootTongue
					{
						OFFSET 1.142400 -1.059800 6.665200
						CHANNELS 3 Xrotation Yrotation Zrotation
						End Site
						{
							OFFSET 0.000000 12.319262 0.000000
						}
					}
				}
				JOINT LeftPantLeg
				{
					OFFSET 0.918482 -16.533964 -2.284700
					CHANNELS 3 Xrotation Yrotation Zrotation
					End Site
					{
						OFFSET 0.350399 24.744368 0.000000
					}
				}
			}
		}
		JOINT RightUpLeg
		{
			OFFSET -8.479700 -4.795502 -0.379100
			CHANNELS 3 Xrotation Yrotation Zrotation
			JOINT RightLeg
			{
				OFFSET -0.023144 -32.555092 0.112900
				CHANNELS 3 Xrotation Yrotation Zrotation
				JOINT RightFoot
				{
					OFFSET 0.023144 -32.638641 -3.012700
					CHANNELS 3 Xrotation Yrotation Zrotation
					JOINT RightToeBase
					{
						OFFSET -0.970200 -13.225400 11.864200
						CHANNELS 3 Xrotation Yrotation Zrotation
						End Site
						{
							OFFSET 0.000000 12.319244 0.000000
						}
					}
					JOINT RFootTongue
					{
						OFFSET -1.142200 -1.059800 6.665200
						CHANNELS 3 Xrotation Yrotation Zrotation
						End Site
						{
							OFFSET 0.000000 12.319243 0.000000
						}
					}
				}
				JOINT RightPantLeg
				{
					OFFSET -0.919482 -16.533978 -2.284800
					CHANNELS 3 Xrotation Yrotation Zrotation
					End Site
					{
						OFFSET -0.350400 24.744419 0.000000
					}
				}
			}
		}
	}
	JOINT Spine
	{
		OFFSET 0.000000 7.722000 1.166200
		CHANNELS 3 Xrotation Yrotation Zrotation
		JOINT Spine1
		{
			OFFSET 0.000000 12.024101 0.248800
			CHANNELS 3 Xrotation Yrotation Zrotation
			JOINT Spine2
			{
				OFFSET 0.000000 11.502998 -0.491200
				CHANNELS 3 Xrotation Yrotation Zrotation
				JOINT Neck
				{
					OFFSET 0.000000 18.430702 -3.123100
					CHANNELS 3 Xrotation Yrotation Zrotation
					JOINT Head
					{
						OFFSET 0.000000 9.051102 1.034000
						CHANNELS 3 Xrotation Yrotation Zrotation
						JOINT HairB
						{
							OFFSET 0.208400 24.786102 24.822300
							CHANNELS 3 Xrotation Yrotation Zrotation
							End Site
							{
								OFFSET 0.000000 32.263779 0.000000
							}
						}
						JOINT HairA
						{
							OFFSET -7.081100 24.428299 23.196600
							CHANNELS 3 Xrotation Yrotation Zrotation
							End Site
							{
								OFFSET 0.000000 32.263779 0.000000
							}
						}
						JOINT Hat
						{
							OFFSET 16.728800 15.048294 -15.439601
							CHANNELS 3 Xrotation Yrotation Zrotation
							End Site
							{
								OFFSET 0.000000 32.263779 0.000000
							}
						}
					}
				}
				JOINT LeftShoulder
				{
					OFFSET 6.197800 13.665199 -4.064700
					CHANNELS 3 Xrotation Yrotation Zrotation
					JOINT LeftArm
					{
						OFFSET 7.778100 -0.187103 -1.709300
						CHANNELS 3 Xrotation Yrotation Zrotation
						JOINT LeftForeArm
						{
							OFFSET 22.049376 0.000000 0.000000
							CHANNELS 3 Xrotation Yrotation Zrotation
							JOINT LeftHand
							{
								OFFSET 23.009392 0.000000 0.000000
								CHANNELS 3 Xrotation Yrotation Zrotation
								JOINT LeftHandThumb1
								{
									OFFSET 3.507191 -2.063065 3.133727
									CHANNELS 3 Xrotation Yrotation Zrotation
									JOINT LeftHandThumb2
									{
										OFFSET 3.101337 -1.790558 1.790558
										CHANNELS 3 Xrotation Yrotation Zrotation
										JOINT LeftHandThumb3
										{
											OFFSET 3.058640 -1.765907 1.765906
											CHANNELS 3 Xrotation Yrotation Zrotation
											End Site
											{
												OFFSET -0.415260 3.926476 -0.049563
											}
										}
									}
								}
								JOINT LeftHandIndex1
								{
									OFFSET 11.334419 -0.901459 3.706815
									CHANNELS 3 Xrotation Yrotation Zrotation
									JOINT LeftHandIndex2
									{
										OFFSET 3.283112 0.000000 0.000000
										CHANNELS 3 Xrotation Yrotation Zrotation
										JOINT LeftHandIndex3
										{
											OFFSET 3.323853 0.000000 0.000000
											CHANNELS 3 Xrotation Yrotation Zrotation
											End Site
											{
												OFFSET -1.135597 3.097809 0.402452
											}
										}
									}
								}
								JOINT LeftHandMiddle1
								{
									OFFSET 11.335861 0.000000 0.000000
									CHANNELS 3 Xrotation Yrotation Zrotation
									JOINT LeftHandMiddle2
									{
										OFFSET 3.410492 0.000000 0.000000
										CHANNELS 3 Xrotation Yrotation Zrotation
										JOINT LeftHandMiddle3
										{
											OFFSET 3.312172 0.000000 0.000000
											CHANNELS 3 Xrotation Yrotation Zrotation
											End Site
											{
												OFFSET -1.150200 3.080154 0.400270
											}
										}
									}
								}
								JOINT LeftHandRing1
								{
									OFFSET 11.514786 -0.013176 -3.003090
									CHANNELS 3 Xrotation Yrotation Zrotation
									JOINT LeftHandRing2
									{
										OFFSET 3.053307 0.000000 0.000000
										CHANNELS 3 Xrotation Yrotation Zrotation
										JOINT LeftHandRing3
										{
											OFFSET 3.295807 0.000000 0.000000
											CHANNELS 3 Xrotation Yrotation Zrotation
											End Site
											{
												OFFSET -1.281006 3.013344 0.375733
											}
										}
									}
								}
								JOINT LeftHandPinky1
								{
									OFFSET 10.518692 -0.960396 -5.730441
									CHANNELS 3 Xrotation Yrotation Zrotation
									JOINT LeftHandPinky2
									{
										OFFSET 2.861649 0.000000 0.000000
										CHANNELS 3 Xrotation Yrotation Zrotation
										JOINT LeftHandPinky3
										{
											OFFSET 2.863380 0.000000 0.000000
											CHANNELS 3 Xrotation Yrotation Zrotation
											End Site
											{
												OFFSET -0.843597 2.711159 0.369971
											}
										}
									}
								}
							}
							JOINT LSleeve
							{
								OFFSET 6.676277 -0.344902 -1.011730
								CHANNELS 3 Xrotation Yrotation Zrotation
								End Site
								{
									OFFSET 0.000000 14.885353 0.000000
								}
							}
						}
					}
				}
				JOINT RightShoulder
				{
					OFFSET -6.197800 13.665199 -4.064700
					CHANNELS 3 Xrotation Yrotation Zrotation
					JOINT RightArm
					{
						OFFSET -7.778100 -0.187103 -1.709300
						CHANNELS 3 Xrotation Yrotation Zrotation
						JOINT RightForeArm
						{
							OFFSET -22.049376 0.000000 0.000000
							CHANNELS 3 Xrotation Yrotation Zrotation
							JOINT RightHand
							{
								OFFSET -23.009392 0.000000 0.000000
								CHANNELS 3 Xrotation Yrotation Zrotation
								JOINT RightHandThumb1
								{
									OFFSET -3.507191 -2.063065 3.133727
									CHANNELS 3 Xrotation Yrotation Zrotation
									JOINT RightHandThumb2
									{
										OFFSET -3.101337 -1.790558 1.790558
										CHANNELS 3 Xrotation Yrotation Zrotation
										JOINT RightHandThumb3
										{
											OFFSET -3.058640 -1.765907 1.765906
											CHANNELS 3 Xrotation Yrotation Zrotation
											End Site
											{
												OFFSET 0.415260 3.926476 -0.049563
											}
										}
									}
								}
								JOINT RightHandIndex1
								{
									OFFSET -11.334419 -0.901459 3.706815
									CHANNELS 3 Xrotation Yrotation Zrotation
									JOINT RightHandIndex2
									{
										OFFSET -3.283112 0.000000 0.000000
										CHANNELS 3 Xrotation Yrotation Zrotation
										JOINT RightHandIndex3
										{
											OFFSET -3.323853 0.000000 0.000000
											CHANNELS 3 Xrotation Yrotation Zrotation
											End Site
											{
												OFFSET 1.135597 3.097809 0.402452
											}
										}
									}
								}
								JOINT RightHandMiddle1
								{
									OFFSET -11.335861 0.000000 0.000000
									CHANNELS 3 Xrotation Yrotation Zrotation
									JOINT RightHandMiddle2
									{
										OFFSET -3.410492 0.000000 0.000000
										CHANNELS 3 Xrotation Yrotation Zrotation
										JOINT RightHandMiddle3
										{
											OFFSET -3.312172 0.000000 0.000000
											CHANNELS 3 Xrotation Yrotation Zrotation
											End Site
											{
												OFFSET 1.150200 3.080154 0.400270
											}
										}
									}
								}
								JOINT RightHandRing1
								{
									OFFSET -11.514786 -0.013176 -3.003090
									CHANNELS 3 Xrotation Yrotation Zrotation
									JOINT RightHandRing2
									{
										OFFSET -3.053307 0.000000 0.000000
										CHANNELS 3 Xrotation Yrotation Zrotation
										JOINT RightHandRing3
										{
											OFFSET -3.295807 0.000000 0.000000
											CHANNELS 3 Xrotation Yrotation Zrotation
											End Site
											{
												OFFSET 1.281006 3.013344 0.375733
											}
										}
									}
								}
								JOINT RightHandPinky1
								{
									OFFSET -10.518692 -0.960396 -5.730441
									CHANNELS 3 Xrotation Yrotation Zrotation
									JOINT RightHandPinky2
									{
										OFFSET -2.861649 0.000000 0.000000
										CHANNELS 3 Xrotation Yrotation Zrotation
										JOINT RightHandPinky3
										{
											OFFSET -2.863380 0.000000 0.000000
											CHANNELS 3 Xrotation Yrotation Zrotation
											End Site
											{
												OFFSET 0.843597 2.711159 0.369971
											}
										}
									}
								}
							}
							JOINT RSleeve
							{
								OFFSET -6.676277 -0.344902 -1.011730
								CHANNELS 3 Xrotation Yrotation Zrotation
								End Site
								{
									OFFSET 0.000000 14.885353 0.000000
								}
							}
						}
					}
				}
				JOINT Backpack
				{
					OFFSET 0.000000 -2.471497 36.677502
					CHANNELS 3 Xrotation Yrotation Zrotation
					End Site
					{
						OFFSET 0.000000 20.427315 0.000000
					}
				}
				JOINT Hood
				{
					OFFSET 0.000000 18.754097 -10.431000
					CHANNELS 3 Xrotation Yrotation Zrotation
					JOINT Hood1
					{
						OFFSET 0.000000 -5.011002 -7.685901
						CHANNELS 3 Xrotation Yrotation Zrotation
						End Site
						{
							OFFSET 0.000000 9.175140 0.000000
						}
					}
				}
				JOINT LHoodieString
				{
					OFFSET 5.250500 16.397697 3.089900
					CHANNELS 3 Xrotation Yrotation Zrotation
					JOINT LHoodieString1
					{
						OFFSET 0.257700 -6.364304 3.694600
						CHANNELS 3 Xrotation Yrotation Zrotation
						JOINT LHoodieString2
						{
							OFFSET 0.000000 -9.643799 2.679100
							CHANNELS 3 Xrotation Yrotation Zrotation
							End Site
							{
								OFFSET 0.000000 10.009018 0.000000
							}
						}
					}
				}
				JOINT RHoodieString
				{
					OFFSET -5.250500 16.397697 3.089900
					CHANNELS 3 Xrotation Yrotation Zrotation
					JOINT RHoodieString1
					{
						OFFSET -0.257700 -6.364304 3.694600
						CHANNELS 3 Xrotation Yrotation Zrotation
						JOINT RHoodieString2
						{
							OFFSET 0.000000 -9.643799 2.679100
							CHANNELS 3 Xrotation Yrotation Zrotation
							End Site
							{
								OFFSET 0.000000 10.009018 0.000000
							}
						}
					}
				}
			}
			JOINT LBackpack_Strap
			{
				OFFSET 15.223200 -7.719803 -6.610900
				CHANNELS 3 Xrotation Yrotation Zrotation
				End Site
				{
					OFFSET 0.000000 16.040596 0.000000
				}
			}
			JOINT RBackpack_Strap
			{
				OFFSET -15.223000 -7.719803 -6.610900
				CHANNELS 3 Xrotation Yrotation Zrotation
				End Site
				{
					OFFSET 0.000000 16.040596 0.000000
				}
			}
		}
	}
	JOINT BoyFacialAnim_Joint
	{
		OFFSET 1.000000 -82.208099 -1.550900
		CHANNELS 3 Xrotation Yrotation Zrotation
		End Site
		{
			OFFSET 0.000000 30.012791 0.000000
		}
	}
}
MOTION
Frames: 4
Frame Time: 0.016667
2.065687 77.313843 0.211291 -174.041403 -97.697325 -171.774299 -0.000000 0.000000 -0.000000 -25.963424 29.724150 28.061445 25.906785 -8.253041 1.025961 -3.277575 3.761001 -16.291728 -0.000000 -0.000000 0.000000 -0.000000 -0.000000 0.000000 -0.000000 0.000004 -0.000001 -24.240801 -9.250868 -24.904447 19.511011 3.098711 -4.198129 -0.092059 8.891918 21.636690 0.000000 0.000000 0.000000 0.000000 0.000000 0.000000 0.000000 -0.000000 0.000001 7.181006 -5.615923 -4.735451 3.180251 -8.412485 -0.457312 3.240268 -8.382694 -0.141388 -11.954769 7.249588 7.049804 90.964050 78.695063 -96.836148 0.000000 -0.000000 0.000000 0.000000 -0.000000 0.000000 0.000000 -0.000000 0.000000 4.998831 3.199398 13.148476 -41.287145 14.474965 -0.764741 0.404866 -12.304733 -0.189202 -49.608180 -4.504514 -0.286673 40.109951 -15.297192 -0.360454 5.639947 28.097733 11.338727 0.000001 0.000001 -0.000001 6.882271 2.840023 -61.140493 8.247978 7.640069 -89.897932 -0.000001 -0.000003 -0.000002 -2.345538 4.688856 -62.655265 8.754188 9.897085 -87.051246 -0.000002 -0.000002 -0.000004 -9.042481 10.045620 -60.766192 8.524022 9.508875 -66.892906 -0.000000 -0.000001 -0.000001 -17.946771 14.755015 -51.485945 8.868359 8.667000 -84.811989 -0.000000 0.000001 -0.000002 -0.000002 0.000000 0.000001 -0.697215 3.176120 -19.419917 -43.720389 41.405945 39.746206 -0.236289 135.165141 1.057688 -74.611860 -0.241669 -6.555954 0.277493 -1.521508 -1.570511 7.169047 -41.689637 -15.773501 -0.000003 0.000003 -0.000002 6.412848 -12.738392 14.389574 9.941762 -7.465171 101.743229 -0.000000 0.000000 0.000002 2.653208 -11.302335 44.730933 9.916110 -9.880660 94.351202 0.000001 0.000002 0.000000 2.140183 -7.454465 61.765005 9.609240 -8.992483 89.388714 0.000000 -0.000001 0.000000 -4.886625 -23.798128 68.396189 13.518324 -7.949268 112.864949 -0.000003 0.000000 -0.000001 0.000000 -0.000000 -0.000000 0.000000 -0.000001 -0.000000 0.000000 -0.000001 -0.000000 0.000000 -0.000001 -0.000000 0.000000 -0.000001 -0.000000 0.000000 -0.000001 0.000000 -0.000000 0.000001 -0.000001 0.000000 -0.000001 -0.000000 0.000000 -0.000001 0.000000 -0.000000 0.000001 -0.000001 0.000001 0.000000 0.000000 0.000001 0.000000 0.000000 -0.000000 0.000000 -0.000000 
2.028571 77.313637 0.209358 -174.142831 -97.775210 -171.855237 -0.000000 0.000000 -0.000000 -25.908900 29.699288 28.015384 25.867873 -8.287312 1.021384 -3.274719 3.763047 -16.299540 0.000000 0.000002 -0.000000 0.000000 0.000002 0.000000 0.000000 0.000001 0.000001 -24.182526 -9.202210 -24.923463 19.578508 2.994818 -4.213681 -0.173797 8.861481 21.671176 -0.000000 -0.000000 0.000000 -0.000000 -0.000000 0.000000 0.000000 0.000001 0.000000 7.165857 -5.650498 -4.771757 3.193035 -8.441190 -0.434103 3.256760 -8.414382 -0.119541 -11.939446 7.256019 7.066639 91.444997 78.685432 -97.309685 0.000000 0.000000 0.000000 0.000000 0.000000 0.000000 0.000000 0.000000 0.000000 4.942455 3.372610 13.150519 -41.216787 14.374471 -0.890733 0.408200 -12.293966 -0.188318 -49.593529 -4.514075 -0.289854 40.109948 -15.297192 -0.360455 5.639949 28.097735 11.338723 0.000003 -0.000001 0.000004 6.882271 2.840027 -61.140493 8.247971 7.640067 -89.897932 -0.000001 -0.000001 -0.000007 -2.345542 4.688856 -62.655265 8.754185 9.897083 -87.051239 -0.000002 -0.000001 -0.000000 -9.042479 10.045619 -60.766192 8.524022 9.508875 -66.892906 -0.000001 0.000002 -0.000002 -17.946778 14.755017 -51.485942 8.868358 8.667000 -84.811975 -0.000001 0.000000 -0.000000 -0.000001 0.000002 0.000001 -0.667742 3.236926 -19.377592 -43.532501 41.170523 39.610985 -0.208228 135.324612 1.024194 -74.601273 -0.328467 -6.443869 0.277494 -1.521508 -1.570509 7.169048 -41.689634 -15.773511 0.000000 0.000004 0.000002 6.412847 -12.738392 14.389576 9.941758 -7.465171 101.743236 -0.000000 -0.000000 0.000002 2.653208 -11.302335 44.730933 9.916107 -9.880662 94.351209 -0.000002 0.000000 -0.000004 2.140183 -7.454465 61.765011 9.609239 -8.992485 89.388707 -0.000001 -0.000003 0.000002 -4.886628 -23.798122 68.396189 13.518323 -7.949270 112.864949 0.000001 0.000001 -0.000001 -0.000000 -0.000000 0.000000 0.000001 0.000001 0.000000 0.000001 0.000001 0.000000 0.000001 0.000001 0.000000 0.000001 0.000001 0.000000 0.000001 0.000001 0.000001 0.000001 0.000000 -0.000000 0.000001 0.000001 0.000000 0.000001 0.000001 0.000001 0.000001 0.000000 -0.000000 0.000001 0.000000 0.000000 0.000001 0.000000 0.000000 -0.000000 0.000000 -0.000000 
1.991607 77.313232 0.207433 -174.240380 -97.852336 -171.932459 0.000000 -0.000001 -0.000000 -25.855929 29.675594 27.970506 25.830109 -8.322786 1.016870 -3.272395 3.765401 -16.306978 -0.000000 0.000002 -0.000000 -0.000000 0.000002 -0.000000 -0.000001 0.000002 0.000000 -24.125338 -9.153273 -24.942346 19.646985 2.888441 -4.229245 -0.255865 8.834101 21.705814 -0.000000 0.000000 0.000000 -0.000000 0.000000 0.000000 0.000000 0.000000 0.000001 7.151644 -5.683446 -4.811263 3.205281 -8.468312 -0.412649 3.272584 -8.444016 -0.099793 -11.924545 7.262637 7.083634 92.002566 78.676061 -97.862670 -0.000000 -0.000001 -0.000000 -0.000000 -0.000001 -0.000000 -0.000000 -0.000001 -0.000000 4.890249 3.523469 13.153895 -41.149834 14.283760 -0.998570 0.411577 -12.283000 -0.187457 -49.578779 -4.523382 -0.293028 40.109948 -15.297190 -0.360455 5.639945 28.097730 11.338726 0.000003 0.000001 -0.000001 6.882270 2.840025 -61.140493 8.247978 7.640071 -89.897932 0.000000 0.000001 -0.000002 -2.345537 4.688856 -62.655265 8.754187 9.897084 -87.051246 0.000001 -0.000002 0.000003 -9.042481 10.045620 -60.766192 8.524021 9.508872 -66.892906 -0.000001 -0.000001 -0.000001 -17.946775 14.755013 -51.485939 8.868358 8.666996 -84.811989 0.000000 0.000000 -0.000000 0.000000 0.000000 0.000000 -0.637572 3.300941 -19.333494 -43.321554 40.922593 39.468965 -0.182327 135.493960 0.993864 -74.580072 -0.410705 -6.329823 0.277490 -1.521509 -1.570510 7.169049 -41.689634 -15.773502 0.000001 -0.000001 0.000002 6.412848 -12.738392 14.389573 9.941761 -7.465171 101.743229 -0.000001 -0.000000 0.000002 2.653204 -11.302337 44.730936 9.916107 -9.880661 94.351202 -0.000000 0.000002 -0.000001 2.140181 -7.454464 61.765011 9.609240 -8.992485 89.388707 0.000002 0.000002 0.000001 -4.886628 -23.798122 68.396182 13.518320 -7.949270 112.864949 0.000001 -0.000000 0.000002 0.000000 -0.000000 -0.000000 -0.000001 -0.000001 0.000000 -0.000001 -0.000001 0.000000 -0.000001 -0.000001 0.000000 -0.000001 -0.000001 0.000000 -0.000001 -0.000001 0.000001 -0.000001 -0.000000 -0.000000 -0.000001 -0.000001 0.000000 -0.000001 -0.000001 0.000001 -0.000001 -0.000000 -0.000000 -0.000001 0.000000 0.000000 -0.000001 0.000000 0.000000 0.000000 -0.000001 -0.000000 
1.954846 77.312599 0.205496 -174.334677 -97.928971 -172.006457 0.000000 0.000000 0.000000 -25.804632 29.652918 27.926945 25.793817 -8.375404 1.011050 -3.270681 3.783750 -16.311877 -0.000000 -0.000000 0.000000 -0.000000 -0.000000 -0.000000 0.000001 -0.000002 -0.000000 -24.068905 -9.104534 -24.961140 19.715551 2.782059 -4.244666 -0.337642 8.807553 21.740374 0.000000 -0.000000 0.000000 0.000000 -0.000000 0.000000 -0.000000 -0.000001 -0.000003 7.138284 -5.717138 -4.850573 3.217084 -8.497975 -0.386805 3.288893 -8.475684 -0.075523 -11.909488 7.269113 7.100595 92.471698 78.666936 -98.326188 0.000000 -0.000000 -0.000000 0.000000 -0.000000 -0.000000 0.000000 -0.000000 -0.000000 4.841600 3.655645 13.158282 -41.084066 14.218011 -1.098237 0.414891 -12.271949 -0.186578 -49.563736 -4.532724 -0.296222 40.109948 -15.297192 -0.360454 5.639947 28.097740 11.338725 0.000001 -0.000000 0.000002 6.882271 2.840025 -61.140493 8.247977 7.640068 -89.897925 -0.000001 0.000002 -0.000005 -2.345539 4.688854 -62.655265 8.754191 9.897082 -87.051253 -0.000001 0.000003 -0.000003 -9.042482 10.045620 -60.766192 8.524022 9.508872 -66.892906 -0.000002 0.000001 -0.000002 -17.946775 14.755013 -51.485939 8.868358 8.666997 -84.811989 0.000000 0.000001 -0.000003 -0.000002 0.000000 -0.000000 -0.606757 3.367926 -19.287855 -43.123338 40.675013 39.333004 -0.149023 135.647967 0.959555 -74.559800 -0.500127 -6.199173 0.277490 -1.521509 -1.570511 7.169041 -41.689624 -15.773507 -0.000003 0.000001 -0.000002 6.412848 -12.738392 14.389576 9.941759 -7.465172 101.743229 -0.000001 -0.000003 0.000001 2.653207 -11.302335 44.730933 9.916104 -9.880658 94.351202 0.000001 0.000001 0.000000 2.140184 -7.454465 61.765005 9.609239 -8.992481 89.388707 -0.000002 -0.000001 0.000000 -4.886629 -23.798121 68.396189 13.518323 -7.949269 112.864942 -0.000001 0.000002 0.000000 0.000000 -0.000000 0.000000 -0.000001 -0.000000 0.000000 -0.000001 -0.000000 0.000000 -0.000001 -0.000000 0.000000 -0.000001 -0.000000 0.000000 -0.000001 -0.000000 0.000001 -0.000001 -0.000000 -0.000000 -0.000001 -0.000000 0.000000 -0.000001 -0.000000 0.000001 -0.000001 -0.000000 -0.000000 0.000001 -0.000000 -0.000000 0.000001 -0.000000 -0.000000 0.000000 0.000000 0.000000 
